#N canvas 525 261 686 400 12;
#X text 210 194 (3 + 6 x 4 + 9) / 12;
#X text 269 23 UNPACK;
#X text 89 64 1. See the help for the "unpack" object to see the order in which the elements of the input list are output., f 68;
#X obj 276 119 unpack;
#X text 90 241 NOTE: the correct answer is 3. Pay attention to the precedence in sum and product \, and to parenthesis... the basic rule is "start from the inside out", f 68;
#X text 326 120 <-- Right Click + Help;
#X text 87 161 2. Make a patch using [unpack] that solves this equation:, f 68;
#N canvas 47 51 450 300 solution 0;
#X msg 111 33 3 6 4 9 12;
#X obj 111 60 unpack f f f f f;
#X obj 138 95 *;
#X obj 111 133 +;
#X obj 111 167 +;
#X obj 111 202 /;
#X floatatom 111 229 5 0 0 0 - - - 0;
#X connect 0 0 1 0;
#X connect 1 0 3 0;
#X connect 1 1 2 0;
#X connect 1 2 2 1;
#X connect 1 3 4 1;
#X connect 1 4 5 1;
#X connect 2 0 3 1;
#X connect 3 0 4 0;
#X connect 4 0 5 0;
#X connect 5 0 6 0;
#X restore 441 347 pd solution;
