#N canvas 527 28 686 400 12;
#X floatatom 341 112 5 0 0 0 - - - 0;
#X obj 366 165 +;
#X floatatom 366 187 5 0 0 0 - - - 0;
#X obj 391 132 t b f;
#X floatatom 391 111 5 0 0 0 - - - 0;
#X floatatom 171 114 5 0 0 0 - - - 0;
#X obj 196 167 +;
#X floatatom 196 189 5 0 0 0 - - - 0;
#X floatatom 232 113 5 0 0 0 - - - 0;
#X text 150 68 What is the difference between these two patches?;
#X text 269 23 HOT and COLD;
#N canvas 89 97 450 300 answer 0;
#X text 16 41 The second one activates the sum when any input is given;
#X restore 382 319 pd answer;
#X connect 0 0 1 0;
#X connect 1 0 2 0;
#X connect 3 0 1 0;
#X connect 3 1 1 1;
#X connect 4 0 3 0;
#X connect 5 0 6 0;
#X connect 6 0 7 0;
#X connect 8 0 6 1;
