#N canvas 562 37 536 403 12;
#X text 54 72 (( 1 + 13 ) * 20 - 3 ) / 15;
#X floatatom 437 45 5 0 0 0 - - - 0;
#X obj 437 71 +;
#X obj 437 98 *;
#X obj 467 71 -;
#X obj 467 98 /;
#X text 59 95 17 + 23 * 3 - 25 / 5;
#X text 25 71 1:;
#X text 25 96 2:;
#X text 25 116 3:;
#X text 56 118 (2^2 * 5 + 24 / 6)^3;
#X text 24 141 4:;
#X text 56 141 sen(x/360)^2 + cos(x/360)^2;
#X obj 429 162 sin;
#X obj 460 162 cos;
#X text 24 165 5:;
#X obj 446 186 pow;
#X text 204 14 MATH EXERCISES;
#X text 38 202 NOTE: the power ^ can be achieved by either the [* ] or [pow] objects., f 38;
#X text 54 166 Circumference of a circle: 2PI * r^2;
#X text 15 49 Get the results of:;
#X text 421 133 also:;
#X text 26 317 For more math objects \, right click on the blank space of the patch and select Help.;
#X text 29 350 Also from the menu \, "Help / List of objects...";
#X text 24 297 MORE OBJECTS:;
#X text 419 17 objects:;
#N canvas 68 74 450 300 solutions 0;
#N canvas 82 250 450 300 respuesta 0;
#X msg 15 72 17;
#X msg 71 68 23;
#X obj 71 106 * 3;
#X obj 15 139 +;
#X msg 122 116 25;
#X obj 122 151 / 5;
#X obj 15 190 -;
#X floatatom 17 227 5 0 0 0 - - - 0;
#X obj 11 13 bng 15 250 50 0 empty empty empty 17 7 0 10 #fcfcfc #000000 #000000;
#X obj 11 33 t b b b, f 20;
#X obj 289 105 * 3;
#X obj 233 138 +;
#X obj 340 150 / 5;
#X obj 233 189 -;
#X floatatom 235 226 5 0 0 0 - - - 0;
#X text 185 36 ==;
#X obj 229 32 unpack f f f, f 20;
#X msg 230 7 17 23 25;
#X connect 0 0 3 0;
#X connect 1 0 2 0;
#X connect 2 0 3 1;
#X connect 3 0 6 0;
#X connect 4 0 5 0;
#X connect 5 0 6 1;
#X connect 6 0 7 0;
#X connect 8 0 9 0;
#X connect 9 0 0 0;
#X connect 9 1 1 0;
#X connect 9 2 4 0;
#X connect 10 0 11 1;
#X connect 11 0 13 0;
#X connect 12 0 13 1;
#X connect 13 0 14 0;
#X connect 16 0 11 0;
#X connect 16 1 10 0;
#X connect 16 2 12 0;
#X connect 17 0 16 0;
#X restore 33 53 pd respuesta 2;
#N canvas 110 120 450 300 respuesta 0;
#X text 29 19 (2^2 * 5 + 24 / 6)^3;
#X obj 40 183 pow 3;
#X obj 32 83 pow 2;
#X msg 33 58 2;
#X obj 32 107 * 5;
#X obj 32 131 +;
#X msg 100 76 24;
#X obj 100 100 / 6;
#X floatatom 40 207 5 0 0 0 - - - 0;
#X text 194 86 ==;
#X obj 281 84 t f f;
#X obj 281 110 *;
#X obj 298 166 +;
#X obj 348 129 /;
#X obj 298 190 t f f f;
#X obj 302 241 *;
#X obj 320 216 *;
#X floatatom 302 265 5 0 0 0 - - - 0;
#X obj 283 51 unpack f f f f;
#X msg 283 23 2 24 6 5;
#X obj 282 138 *;
#X connect 1 0 8 0;
#X connect 2 0 4 0;
#X connect 3 0 2 0;
#X connect 4 0 5 0;
#X connect 5 0 1 0;
#X connect 6 0 7 0;
#X connect 7 0 5 1;
#X connect 10 0 11 0;
#X connect 10 1 11 1;
#X connect 11 0 20 0;
#X connect 12 0 14 0;
#X connect 13 0 12 1;
#X connect 14 0 15 0;
#X connect 14 1 16 0;
#X connect 14 2 16 1;
#X connect 15 0 17 0;
#X connect 16 0 15 1;
#X connect 18 0 10 0;
#X connect 18 1 13 0;
#X connect 18 2 13 1;
#X connect 18 3 20 1;
#X connect 19 0 18 0;
#X connect 20 0 12 0;
#X restore 33 76 pd respuesta 3;
#N canvas 131 143 450 300 respuesta 0;
#X floatatom 36 24 5 0 0 0 - - - 0;
#X obj 36 47 / 360;
#X obj 10 102 sin;
#X obj 10 126 t f f;
#X obj 10 150 *;
#X obj 16 206 +;
#X floatatom 16 230 5 0 0 0 - - - 0;
#X obj 83 126 t f f;
#X obj 83 150 *;
#X obj 83 102 cos;
#X obj 36 70 t f f;
#X floatatom 10 174 5 0 0 0 - - - 0;
#X floatatom 83 174 5 0 0 0 - - - 0;
#X text 65 233 ... siempre dará 1 porque es una identidad matemática;
#X connect 0 0 1 0;
#X connect 1 0 10 0;
#X connect 2 0 3 0;
#X connect 3 0 4 0;
#X connect 3 1 4 1;
#X connect 4 0 11 0;
#X connect 5 0 6 0;
#X connect 7 0 8 0;
#X connect 7 1 8 1;
#X connect 8 0 12 0;
#X connect 9 0 7 0;
#X connect 10 0 2 0;
#X connect 10 1 9 0;
#X connect 11 0 5 0;
#X connect 12 0 5 1;
#X restore 33 99 pd respuesta 4;
#N canvas 83 213 450 300 respuesta 0;
#X msg 17 37 1 13 20 3 15;
#X obj 17 61 unpack f f f f f;
#X obj 17 85 +;
#X obj 17 109 *;
#X obj 17 133 -;
#X obj 17 157 /;
#X floatatom 17 181 8 0 0 0 - - - 0;
#X floatatom 171 79 5 0 0 0 - - - 0;
#X obj 171 34 bng 15 250 50 0 empty empty empty 17 7 0 10 #fcfcfc #000000 #000000;
#X obj 181 155 + 13;
#X msg 181 128 1;
#X text 59 8 Todos estos son lo mismo;
#X obj 181 179 * 20;
#X obj 181 203 - 3;
#X obj 181 227 / 15;
#X floatatom 181 252 5 0 0 0 - - - 0;
#X obj 171 55 expr (( 1 + 13 ) * 20 - 3 ) / 15;
#X connect 0 0 1 0;
#X connect 1 0 2 0;
#X connect 1 1 2 1;
#X connect 1 2 3 1;
#X connect 1 3 4 1;
#X connect 1 4 5 1;
#X connect 2 0 3 0;
#X connect 3 0 4 0;
#X connect 4 0 5 0;
#X connect 5 0 6 0;
#X connect 8 0 16 0;
#X connect 9 0 12 0;
#X connect 10 0 9 0;
#X connect 12 0 13 0;
#X connect 13 0 14 0;
#X connect 14 0 15 0;
#X connect 16 0 7 0;
#X restore 33 30 pd respuesta 1;
#N canvas 152 166 450 300 respuesta 0;
#X floatatom 36 31 5 0 0 0 - - - 0;
#X obj 36 54 * 2;
#X obj 36 78 * 3.14159;
#X obj 36 102 pow 2;
#X floatatom 36 126 5 0 0 0 - - - 0;
#X msg 276 64 1 0;
#X obj 276 88 atan2;
#X obj 276 112 * 2;
#X floatatom 276 136 12 0 0 0 - - - 0;
#X text 250 33 el número PI:;
#X connect 0 0 1 0;
#X connect 1 0 2 0;
#X connect 2 0 3 0;
#X connect 3 0 4 0;
#X connect 5 0 6 0;
#X connect 6 0 7 0;
#X connect 7 0 8 0;
#X restore 32 123 pd respuesta 5;
#X restore 391 262 pd solutions;
