#N canvas 529 31 509 459 12;
#X floatatom 129 156 5 0 0 0 - - - 0;
#X obj 215 156 osc~;
#X obj 292 156 osc~;
#X obj 174 156 dac~;
#X obj 258 156 * 2;
#X text 164 17 Oscillator + Octave;
#X text 39 50 Make a patch with an oscillator sounding an octave above another one.;
#X text 49 94 HELP: try using only these objects. Do not create or duplicate them \, just move and connect them.;
#X text 38 347 NOTE: An octave can be obtained with the ratio 2:1 \, ie. \, twice the frequency;
#X text 38 396 Can you think of other intervals besides the octave?;
#N canvas 110 120 590 356 solution 0;
#X floatatom 38 28 5 0 0 0 - - - 0;
#X obj 18 126 osc~;
#X obj 108 128 osc~;
#X obj 44 237 dac~;
#X obj 88 75 * 2;
#X obj 44 188 +~;
#X floatatom 250 27 5 0 0 0 - - - 0;
#X obj 243 127 osc~;
#X obj 320 127 osc~;
#X obj 242 188 dac~;
#X obj 300 74 * 2;
#X text 86 187 <-- the same -->;
#X text 48 281 signal cords always add themselves together at the inlets;
#X connect 0 0 4 0;
#X connect 0 0 1 0;
#X connect 1 0 5 0;
#X connect 2 0 5 1;
#X connect 4 0 2 0;
#X connect 5 0 3 0;
#X connect 6 0 10 0;
#X connect 6 0 7 0;
#X connect 7 0 9 0;
#X connect 8 0 9 0;
#X connect 10 0 8 0;
#X restore 305 292 pd solution;
#N canvas 98 0 791 300 more 0;
#X obj 729 90 /;
#X floatatom 729 114 5 0 0 0 - - - 0;
#X msg 102 68 1 1;
#X obj 102 92 /;
#X floatatom 102 116 5 0 0 0 - - - 0;
#X obj 154 94 /;
#X floatatom 154 118 5 0 0 0 - - - 0;
#X obj 211 94 /;
#X floatatom 211 118 5 0 0 0 - - - 0;
#X obj 265 93 /;
#X floatatom 265 117 5 0 0 0 - - - 0;
#X obj 313 93 /;
#X floatatom 313 117 5 0 0 0 - - - 0;
#X obj 367 89 /;
#X floatatom 367 113 5 0 0 0 - - - 0;
#X obj 417 91 /;
#X floatatom 417 115 5 0 0 0 - - - 0;
#X obj 473 88 /;
#X floatatom 473 112 5 0 0 0 - - - 0;
#X obj 528 87 /;
#X floatatom 528 111 5 0 0 0 - - - 0;
#X obj 576 86 /;
#X floatatom 576 110 5 0 0 0 - - - 0;
#X obj 622 87 /;
#X floatatom 622 111 5 0 0 0 - - - 0;
#X obj 668 87 /;
#X floatatom 668 111 5 0 0 0 - - - 0;
#X msg 729 66 2 1;
#X msg 211 70 9 8;
#X msg 265 69 6 5;
#X msg 314 68 5 4;
#X msg 367 65 4 3;
#X msg 417 67 45 32;
#X msg 473 64 3 2;
#X msg 528 63 8 5;
#X msg 622 62 9 5;
#X msg 668 63 15 8;
#X obj 34 211 osc~;
#X obj 55 259 dac~;
#X obj 78 213 osc~;
#X obj 79 192 *~;
#X msg 576 62 5 3;
#X msg 154 70 16 15;
#X msg 21 76 440;
#X obj 30 166 sig~;
#X msg 40 107 0;
#X text 95 30 Just Intonation;
#X connect 0 0 1 0;
#X connect 1 0 40 1;
#X connect 2 0 3 0;
#X connect 3 0 4 0;
#X connect 4 0 40 1;
#X connect 5 0 6 0;
#X connect 6 0 40 1;
#X connect 7 0 8 0;
#X connect 8 0 40 1;
#X connect 9 0 10 0;
#X connect 10 0 40 1;
#X connect 11 0 12 0;
#X connect 12 0 40 1;
#X connect 13 0 14 0;
#X connect 14 0 40 1;
#X connect 15 0 16 0;
#X connect 16 0 40 1;
#X connect 17 0 18 0;
#X connect 18 0 40 1;
#X connect 19 0 20 0;
#X connect 20 0 40 1;
#X connect 21 0 22 0;
#X connect 22 0 40 1;
#X connect 23 0 24 0;
#X connect 24 0 40 1;
#X connect 25 0 26 0;
#X connect 26 0 40 1;
#X connect 27 0 0 0;
#X connect 28 0 7 0;
#X connect 29 0 9 0;
#X connect 30 0 11 0;
#X connect 31 0 13 0;
#X connect 32 0 15 0;
#X connect 33 0 17 0;
#X connect 34 0 19 0;
#X connect 35 0 23 0;
#X connect 36 0 25 0;
#X connect 37 0 38 0;
#X connect 39 0 38 0;
#X connect 40 0 39 0;
#X connect 41 0 21 0;
#X connect 42 0 5 0;
#X connect 43 0 44 0;
#X connect 44 0 37 0;
#X connect 44 0 40 0;
#X connect 45 0 44 0;
#X restore 300 418 pd more;
