#N canvas 527 28 377 262 12;
#X text 60 12 ¿COMO HACER UN CONTADOR?;
#X obj 53 83 bng 15 250 50 0 empty empty empty 17 7 0 10 #fcfcfc #000000
#000000;
#X floatatom 126 86 5 0 0 0 - - - 0;
#X floatatom 76 182 5 0 0 0 - - - 0;
#X obj 76 128 f;
#X obj 88 509 bng 15 250 50 0 empty empty empty 17 7 0 10 #fcfcfc #000000
#000000;
#X floatatom 146 510 5 0 0 0 - - - 0;
#X floatatom 124 614 5 0 0 0 - - - 0;
#X obj 124 560 f;
#X obj 224 563 + 1;
#X obj 415 508 bng 15 250 50 0 empty empty empty 17 7 0 10 #fcfcfc
#000000 #000000;
#X obj 415 528 f;
#X obj 444 528 + 1;
#X floatatom 415 550 5 0 0 0 - - - 0;
#X obj 527 525 bng 15 250 50 0 empty empty empty 17 7 0 10 #fcfcfc
#000000 #000000;
#X obj 527 545 f;
#X obj 555 544 + 1;
#X floatatom 85 247 5 0 0 0 - - - 0;
#X floatatom 109 352 5 0 0 0 - - - 0;
#X floatatom 154 252 5 0 0 0 - - - 0;
#X obj 109 310 +;
#X text 56 44 Objeto FLOAT;
#X text 127 128 <- variable tipo float almacenada, f 17;
#X text 161 310 <-- Suma \, con argumento 0;
#X obj 652 515 cnv 15 100 60 empty empty empty 20 12 0 14 #e0e0e0 #404040
0;
#X obj 2 618 cnv 15 100 60 empty empty empty 20 12 0 14 #ffffff #404040
0;
#X text 118 448 Un Contador;
#X text 23 483 paso (step);
#X text 184 510 valor inicial (seed);
#X text 393 471 ...de manera más compacta:;
#X connect 1 0 4 0;
#X connect 2 0 4 1;
#X connect 4 0 3 0;
#X connect 5 0 8 0;
#X connect 6 0 8 1;
#X connect 7 0 9 0;
#X connect 8 0 7 0;
#X connect 9 0 8 1;
#X connect 10 0 11 0;
#X connect 11 0 12 0;
#X connect 11 0 13 0;
#X connect 12 0 11 1;
#X connect 14 0 15 0;
#X connect 15 0 16 0;
#X connect 16 0 15 1;
#X connect 17 0 20 0;
#X connect 19 0 20 1;
#X connect 20 0 18 0;
