#N canvas 527 28 728 400 12;
#X obj 192 333 print;
#X floatatom 276 281 5 0 0 0 - - - 0;
#X listbox 246 253 11 0 0 0 - - - 0;
#X text 398 267 audio --> <--;
#X obj 465 293 *~;
#X obj 461 333 dac~;
#X obj 465 149 osc~ 440;
#X obj 494 295 tgl 15 0 empty empty empty 17 7 0 10 #fcfcfc #000000 #000000 0 1;
#X msg 192 153 mensaje;
#X text 115 270 control --> <--;
#X text 265 19 Two type of connecting cords;
#X text 112 61 Control connections;
#X text 406 61 Signal cords (2-pixel wide);
#X text 73 106 Non-audio processing objects;
#X text 390 106 Audio processing objects (note the ~);
#X text 28 196 These only send values when you activate them;
#X text 507 179 When DSP is ON \, they are ALWAYS sending data, f 16;
#X text 509 241 When DSP is OFF \, they do nothing, f 16;
#X connect 1 0 0 0;
#X connect 2 0 0 0;
#X connect 4 0 5 0;
#X connect 4 0 5 1;
#X connect 6 0 4 0;
#X connect 7 0 4 1;
#X connect 8 0 0 0;
