#N canvas 109 23 1024 688 12;
#X obj 270 373 osc~;
#X floatatom 409 729 5 0 0 0 - - - 0;
#X obj 409 752 / 100;
#X floatatom 72 720 5 0 0 0 - - - 0;
#X obj 72 802 print;
#X floatatom 409 776 6 0 0 0 - - - 0;
#X obj 409 799 print;
#X text 210 72 f(n) = a • sen(ωn + ø);
#X floatatom 218 373 5 0 0 0 - - - 0;
#X obj 317 373 *~;
#X obj 535 1791 cnv 15 100 60 empty empty empty 20 12 0 14 #e0e0e0 #404040 0;
#X text 80 121 Donde:;
#X text 270 950 MIDI (0-127);
#X text 351 1066 Frecuencia (Hz);
#X msg 179 950 60;
#X obj 297 1019 mtof;
#X floatatom 297 1066 5 0 0 0 - - - 0;
#X msg 222 950 69;
#X obj 297 1113 ftom;
#X floatatom 297 1145 5 0 0 0 - - - 0;
#X floatatom 204 1331 5 0 0 0 - - - 0;
#X obj 204 1376 dbtorms;
#X floatatom 219 1422 5 0 0 0 - - - 0;
#X obj 205 1471 rmstodb;
#X floatatom 239 1501 5 0 0 0 - - - 0;
#X msg 204 1266 100;
#X msg 222 1295 106;
#X msg 680 1294 3;
#X msg 687 1339 -3;
#X msg 691 1360 -6;
#X msg 704 1402 -60;
#X msg 156 1293 40;
#X obj 665 1429 + 100;
#X msg 670 1272 6;
#X msg 659 1248 12;
#X msg 700 1381 -12;
#X obj 665 1452 dbtorms;
#X floatatom 665 1487 5 0 0 0 - - - 0;
#X msg 684 1315 0;
#X obj 1192 1443 cnv 15 100 60 empty empty empty 20 12 0 14 #e0e0e0 #404040 0;
#X text 518 1618 ¿Cómo cambiar el patch de arriba para tener control "perceptual" de altura e intensidad?;
#X text 153 597 ----------------------------------;
#X text 134 472 ||||||||, f 1;
#X floatatom 297 978 5 0 0 0 - - - 0;
#X text 333 1109 frequency to midi;
#X text 122 25 Sinewave;
#X text 245 25 Frequency and Amplitude control;
#X text 104 142 n = saple number;
#X text 103 157 a = amplitude \,;
#X text 105 174 ω = angular frequency;
#X text 105 191 ø = phase;
#X text 115 412 Are we missing an object to be able to listen?;
#X text 118 322 How do we connect these to have amplitude and frequency control?;
#X floatatom 168 373 5 0 0 0 - - - 0;
#X text 146 638 Something about the number box:;
#X text 103 682 Click + Drag;
#X text 96 751 Click + Drag with Shift;
#X text 382 696 ... and we can also do this:;
#X text 253 909 Pitch vs Frequency;
#X text 430 939 Pitch is perceptual;
#X text 418 959 Percpetion is logarithmic;
#X text 337 1026 midi to frequency converter;
#X text 479 1066 Herz is lineal;
#X text 157 1112 reverse converter;
#X text 151 1217 Amplitude vs Loudness;
#X text 698 1248 4 times louder (+12dB);
#X text 710 1271 2 times louder (+6dB);
#X text 722 1292 1.5 times louder (+3dB);
#X text 728 1315 unchanged (0dB);
#X text 744 1359 2 times softer (-6dB);
#X text 751 1382 4 times softer (-12dB);
#X text 739 1338 1.5 times softer (-3dB);
#X text 755 1406 silence (-60dB);
#X text 618 1198 we usually see these values in DAWs;
#X text 947 1268 This is very general. Every region of the spectrum has a different relation to loudness. (Fletcher-Munson), f 39;
#X text 507 1273 more -->;
#X text 234 1267 unchanged;
#X text 255 1294 twice;
#X text 92 1292 silence;
#X text 249 1332 dB \, generally between 80 and 120;
#X text 302 1351 perceptual \, logaritmic scale;
#X text 136 1471 reverse;
#X text 61 1375 dB to RMS converter;
#X text 373 1438 lineal amplitude;
#X text 265 1420 amplitud 0-1 (not RMS technically);
#X connect 1 0 2 0;
#X connect 2 0 5 0;
#X connect 3 0 4 0;
#X connect 5 0 6 0;
#X connect 14 0 15 0;
#X connect 15 0 16 0;
#X connect 16 0 18 0;
#X connect 17 0 15 0;
#X connect 18 0 19 0;
#X connect 20 0 21 0;
#X connect 21 0 22 0;
#X connect 22 0 23 0;
#X connect 23 0 24 0;
#X connect 25 0 20 0;
#X connect 26 0 20 0;
#X connect 27 0 32 0;
#X connect 28 0 32 0;
#X connect 29 0 32 0;
#X connect 30 0 32 0;
#X connect 31 0 20 0;
#X connect 32 0 36 0;
#X connect 33 0 32 0;
#X connect 34 0 32 0;
#X connect 35 0 32 0;
#X connect 36 0 37 0;
#X connect 38 0 32 0;
#X connect 43 0 15 0;
