#N canvas 145 90 1024 688 12;
#X floatatom 341 80 5 0 0 0 - - - 0;
#X obj 341 102 / 100;
#X obj 269 146 *~;
#X obj 269 169 dac~;
#X obj 360 1322 cnv 15 100 60 empty empty empty 20 12 0 14 #e0e0e0 #404040 0;
#X obj 187 365 line;
#X msg 206 494 1 1000;
#X obj 226 576 line;
#X msg 248 530 0 500;
#X floatatom 226 599 5 0 0 0 - - - 0;
#X obj 178 689 line~;
#X obj 217 900 line~;
#X obj 226 941 env~;
#X floatatom 226 964 5 0 0 0 - - - 0;
#X text 362 1074 ¿Cómo evitamos este ruido?;
#X obj 440 1107 pack;
#X text 375 1107 usemos;
#X obj 493 1107 line~;
#X obj 269 80 osc~ 337;
#X floatatom 377 956 5 0 0 0 - - - 0;
#X obj 377 933 dbtorms;
#X text 182 14 Click sound - signal discontinuities;
#X text 199 209 How do we avoid this noise?;
#X text 286 227 We make ramps;
#X text 65 321 Control version:;
#X text 251 361 ramps values. see help file, f 29;
#X text 184 411 1) takes a message with two values;
#X text 231 432 a) target value;
#X text 231 450 b) time (msec);
#X text 267 497 <-- go to one in 1000 millisectons (1 secod);
#X text 297 530 <-- go to zero in 1/2 second;
#X text 49 657 Now \, let's see the audio version;
#X text 243 691 ramp values inside a block of samples;
#X text 231 752 a) target value;
#X text 231 770 b) time (msec);
#X text 184 731 1) idem: takes a message with two values;
#X msg 187 821 0.8 2000;
#X text 255 822 <-- go to 0.8 in 2 seconds;
#X text 97 940 "env" reports dB;
#X text 334 909 so we convert to RMS;
#X msg 239 854 0.1 700;
#X text 308 854 <-- go to 0.1 in 0.7 seconds;
#X connect 0 0 1 0;
#X connect 1 0 2 1;
#X connect 2 0 3 0;
#X connect 2 0 3 1;
#X connect 6 0 7 0;
#X connect 7 0 9 0;
#X connect 8 0 7 0;
#X connect 11 0 12 0;
#X connect 12 0 13 0;
#X connect 12 0 20 0;
#X connect 18 0 2 0;
#X connect 20 0 19 0;
#X connect 36 0 11 0;
#X connect 40 0 11 0;
