#N canvas 538 37 530 380 12;
#X obj 178 174 dbtorms;
#X obj 242 174 mtof;
#X obj 194 268 line~;
#X obj 240 268 pack;
#X text 169 18 Pitch and Loudness percetual controls;
#X text 59 55 First \, Copy+Paste the osc+octave patch;
#X text 56 114 Then \, change it using these objects to achieve a more perceptual control over the frequency and amplitude values \, so that you can think of Pitch and Loudness:;
#X text 59 237 How would you include these objects to avoid click sounds?;
#X text 284 267 ? ? ? ? ?;
#N canvas 47 51 450 300 solution 0;
#X floatatom 152 24 5 0 0 0 - - - 0;
#X obj 152 126 osc~;
#X obj 199 126 osc~;
#X obj 152 235 dac~;
#X obj 199 97 * 2;
#X obj 152 186 +~;
#X floatatom 247 150 5 0 0 0 - - - 0;
#X obj 247 173 dbtorms;
#X obj 152 211 *~;
#X obj 152 59 mtof;
#X connect 0 0 9 0;
#X connect 1 0 5 0;
#X connect 2 0 5 1;
#X connect 4 0 2 0;
#X connect 5 0 8 0;
#X connect 6 0 7 0;
#X connect 7 0 8 1;
#X connect 8 0 3 0;
#X connect 9 0 1 0;
#X connect 9 0 4 0;
#X restore 381 179 pd solution;
#N canvas 47 51 450 427 solution 0;
#X floatatom 93 39 5 0 0 0 - - - 0;
#X obj 93 196 osc~;
#X obj 139 196 osc~;
#X obj 93 306 dac~;
#X obj 93 257 +~;
#X floatatom 238 187 5 0 0 0 - - - 0;
#X obj 238 210 dbtorms;
#X obj 93 282 *~;
#X obj 93 74 mtof;
#X obj 238 237 pack f 10;
#X obj 238 263 line~;
#X obj 93 98 pack f 10;
#X obj 93 125 line~;
#X obj 139 168 *~ 2;
#X connect 0 0 8 0;
#X connect 1 0 4 0;
#X connect 2 0 4 1;
#X connect 4 0 7 0;
#X connect 5 0 6 0;
#X connect 6 0 9 0;
#X connect 7 0 3 0;
#X connect 8 0 11 0;
#X connect 9 0 10 0;
#X connect 10 0 7 1;
#X connect 11 0 12 0;
#X connect 12 0 1 0;
#X connect 12 0 13 0;
#X connect 13 0 2 0;
#X restore 383 292 pd solution;
