#N canvas 314 61 668 427 12;
#X obj 120 302 print;
#X text 36 303 Ctrl + 1;
#X msg 120 102 hola mundo;
#X floatatom 197 157 5 0 0 0 - - - 0;
#X text 46 97 Ctrl + 2;
#X text 127 157 Ctrl + 3;
#X listbox 273 236 8 0 0 0 - - - 0;
#X text 201 237 Ctrl + 4;
#X text 47 62 Ctrl + 5;
#X text 500 357 macos: ctrl==cmd;
#X text 214 19 The 5 types of objects in Pd;
#X text 124 63 This is a text comment;
#X text 204 98 <-- This is a message box that outputs its contents if you click on it (in edit mode off);
#X text 245 156 This is a number box that outputs its value if you click+drag it or type with the keyboard.;
#X text 337 235 <-- This is a list or symbol box that ouputs its value when you type or send a value to the inlet, f 38;
#X text 178 299 <-- This is an object box with one inlet \, containing the "print" object that prints messages to the console.;
#X text 64 206 cord --> <--;
#X connect 2 0 0 0;
#X connect 3 0 0 0;
#X connect 6 0 0 0;
