#N canvas 0 7 1274 733 12;
#X floatatom 207 113 5 0 0 0 - - - 0;
#X obj 248 208 +;
#X floatatom 248 246 5 0 0 0 - - - 0;
#X floatatom 321 119 5 0 0 0 - - - 0;
#X text 297 178 <-- "cold";
#X text 157 177 "hot" -->;
#X floatatom 121 1269 5 0 0 0 - - - 0;
#X obj 121 1382 +;
#X floatatom 121 1406 5 0 0 0 - - - 0;
#X floatatom 174 1272 5 0 0 0 - - - 0;
#X obj 174 1300 trigger bang float;
#X obj 464 1313 t b f;
#X obj 147 1341 bng 15 250 50 0 empty empty empty 17 7 0 10 #fcfcfc #000000 #000000;
#X floatatom 464 1277 5 0 0 0 - - - 0;
#X floatatom 464 1391 5 0 0 0 - - - 0;
#X obj 464 1367 /;
#X msg 464 1337 1, f 2;
#X floatatom 43 609 5 0 0 0 - - - 0;
#X obj 43 645 trigger bang float;
#X obj 43 677 bng 15 250 50 0 empty empty empty 17 7 0 10 #fcfcfc #000000 #000000;
#X floatatom 167 677 5 0 0 0 - - - 0;
#X text 192 636 ==;
#X floatatom 258 611 5 0 0 0 - - - 0;
#X obj 256 675 bng 15 250 50 0 empty empty empty 17 7 0 10 #fcfcfc #000000 #000000;
#X floatatom 290 673 5 0 0 0 - - - 0;
#X obj 258 639 t b f;
#X obj 347 1925 cnv 15 100 60 empty empty empty 20 12 0 14 #e0e0e0 #404040 0;
#X text 372 619 trigger -> t;
#X text 506 624 float -> f;
#X text 510 644 bang -> b;
#X text 263 1009 <----------------;
#X floatatom 264 888 5 0 0 0 - - - 0;
#X obj 266 932 trigger bang float;
#X obj 114 987 bng 15 250 50 0 empty empty empty 17 7 0 10 #fcfcfc #000000 #000000;
#X floatatom 523 980 5 0 0 0 - - - 0;
#X obj 141 1685 * 3;
#X obj 161 1714 -;
#X obj 186 1684 + 7;
#X msg 150 1623 3;
#X floatatom 170 1758 5 0 0 0 - - - 0;
#X obj 258 1683 * 3;
#X obj 278 1712 -;
#X obj 303 1682 + 7;
#X msg 267 1621 3;
#X floatatom 293 1753 5 0 0 0 - - - 0;
#X text 307 1538 "Triggerize";
#X obj 202 1571 bng 15 250 50 0 empty empty empty 17 7 0 10 #fcfcfc #000000 #000000;
#X text 250 12 Order of Execution;
#X text 129 364 Difference between inlets;
#X text 170 388 The first inlet activates the object;
#X text 225 404 The rest update internal variables;
#X text 206 516 The "trigger" object;
#X text 358 574 Abbreviations:;
#X text 376 601 NAME;
#X text 502 600 ARGUMENTS;
#X text 487 697 (there are more);
#X text 521 670 ...;
#X text 19 840 When in comes a value \, the object activates its outlets from right to left, f 80;
#X text 311 887 0) send a value;
#X text 393 1007 1) first comes a "float";
#X text 98 1009 2) then comes a "bang";
#X text 162 1043 We cannot perceive this because it is too fast for us. Computers tell the difference. Try printing both outputs to console and check the order on the pd console.;
#X text 30 1229 Using trigger to make both inlets HOT;
#X text 356 1242 Usage example: obtain the number 1/x;
#X text 188 1367 both inlets are "hot";
#X text 24 1565 Where's the bug?;
#X text 414 1616 1) Select a "fan-out", f 24;
#X text 413 1658 2) Ctrl + T;
#X text 112 1790 This gives 9;
#X text 292 1783 This gives -1 \, which is correct;
#X text 132 1810 (the first time);
#X connect 0 0 1 0;
#X connect 1 0 2 0;
#X connect 3 0 1 1;
#X connect 6 0 7 0;
#X connect 7 0 8 0;
#X connect 9 0 10 0;
#X connect 10 0 12 0;
#X connect 10 1 7 1;
#X connect 11 0 16 0;
#X connect 11 1 15 1;
#X connect 12 0 7 0;
#X connect 13 0 11 0;
#X connect 15 0 14 0;
#X connect 16 0 15 0;
#X connect 17 0 18 0;
#X connect 18 0 19 0;
#X connect 18 1 20 0;
#X connect 22 0 25 0;
#X connect 25 0 23 0;
#X connect 25 1 24 0;
#X connect 31 0 32 0;
#X connect 32 0 33 0;
#X connect 32 1 34 0;
#X connect 35 0 36 0;
#X connect 36 0 39 0;
#X connect 37 0 36 1;
#X connect 38 0 35 0;
#X connect 38 0 37 0;
#X connect 40 0 41 0;
#X connect 41 0 44 0;
#X connect 42 0 41 1;
#X connect 43 0 42 0;
#X connect 43 0 40 0;
#X connect 46 0 38 0;
#X connect 46 0 43 0;
