#N canvas 527 28 717 438 12;
#X msg 335 99 1 54 3.14;
#X floatatom 66 218 5 0 0 0 - - - 0;
#X floatatom 113 218 5 0 0 0 - - - 0;
#X floatatom 164 218 5 0 0 0 - - - 0;
#X msg 421 264 1 54 3.14;
#X obj 444 303 unpack f f f;
#X floatatom 444 337 5 0 0 0 - - - 0;
#X floatatom 484 359 5 0 0 0 - - - 0;
#X floatatom 525 331 5 0 0 0 - - - 0;
#X floatatom 31 86 5 0 0 0 - - - 0;
#X obj 31 117 print;
#X obj 66 289 print gato;
#X obj 33 221 bng 15 250 50 0 empty empty empty 17 7 0 10 #fcfcfc #000000 #000000;
#X msg 511 267 3 2 1;
#X text 238 16 "float" and "list" of "float"s;
#X text 26 56 One number \, ie "float";
#X text 74 85 <-- shift + drag: 1/100;
#X text 78 117 <-- prints a float;
#X text 263 238 ... and disassembled using "unpack":;
#X text 22 183 Lists can be assembled using "pack":;
#X text 275 53 A list is a message that starts either with the word "list" or a number. Each element is separated by a space.;
#X msg 428 123 list cucumber 33 elephant 76;
#X obj 361 168 print;
#X obj 66 247 pack f f f;
#X connect 0 0 22 0;
#X connect 1 0 23 0;
#X connect 2 0 23 1;
#X connect 3 0 23 2;
#X connect 4 0 5 0;
#X connect 5 0 6 0;
#X connect 5 1 7 0;
#X connect 5 2 8 0;
#X connect 9 0 10 0;
#X connect 12 0 23 0;
#X connect 13 0 5 0;
#X connect 21 0 22 0;
#X connect 23 0 11 0;
