#N canvas 527 28 686 400 12;
#X text 342 85 ||||||||||||||||||||, f 1;
#X obj 415 339 print;
#X obj 65 337;
#X floatatom 446 262 5 0 0 0 - - - 0;
#X text 207 10 Interaction modes: edit mode on or off;
#X text 53 74 EDIT MODE ON;
#X text 415 75 EDIT MODE OFF;
#X text 31 105 Cursor: Hand | window bar reads "[edit]";
#X text 35 134 Allows to make patches:;
#X text 59 165 Move \, Put \, Duplicate;
#X text 58 190 Select \, Cut \, Copy \, Paste;
#X text 59 215 Insert Text;
#X text 58 254 Draw Connections;
#X msg 65 292 editable in edit mode;
#X text 96 336 <- type "print";
#X text 407 109 Cursor: Arrow;
#X text 399 140 Allows to play patches:;
#X text 432 174 Click actions \, click+drag \, etc.;
#X msg 415 210 clickable;
#X text 439 304 NOTE: objects can't be moved;
#X text 245 37 Ctrl + E (also from Menu Edit/Edit Mode);
#X connect 3 0 1 0;
#X connect 13 0 2 0;
#X connect 18 0 1 0;
