#N canvas 47 51 450 300 12;
#X obj 26 100 osc~;
#X obj 26 238 dac~;
#X obj 26 174 *~ 0.1;
#X floatatom 26 62 5 0 0 0 - - - 0;
#X text 71 61 A number box to set the Frequency (Hz);
#X text 102 21 How to make a sinewave in Pd?;
#X text 67 101 The sinusoid wave generator outputs unit amplitude;
#X text 85 163 Multiply by 0.1 to get amplitudes between -0.1 and 0.1, f 31;
#X text 48 141 Amplitude is controlled after generating:;
#X text 75 229 The digital audio conversion object sends the signal to your speakers, f 36;
#X connect 0 0 2 0;
#X connect 2 0 1 0;
#X connect 2 0 1 1;
#X connect 3 0 0 0;
